<?xml version="1.0" encoding="UTF-8"?>
<svg id="Layer_1" data-name="Layer 1" xmlns="http://www.w3.org/2000/svg" viewBox="0 0 1204.37 701.45">
  <defs>
    <style>
      .cls-1 {
        fill: #fff;
      }
    </style>
  </defs>
  <g>
    <path class="cls-1" d="M194.64,222.49h-37.17c-.26-3.08-.96-5.87-2.08-8.37s-2.66-4.67-4.61-6.49c-1.96-1.82-4.32-3.23-7.09-4.22-2.77-.99-5.91-1.48-9.43-1.48-6.15,0-11.35,1.49-15.59,4.48-4.24,2.99-7.45,7.27-9.62,12.85-2.17,5.58-3.26,12.28-3.26,20.1,0,8.26,1.11,15.17,3.33,20.73,2.22,5.56,5.44,9.73,9.66,12.52,4.22,2.79,9.29,4.19,15.23,4.19,3.38,0,6.42-.43,9.1-1.29,2.68-.86,5.01-2.1,6.99-3.72,1.98-1.62,3.59-3.59,4.84-5.9,1.25-2.31,2.1-4.91,2.54-7.81l37.17.26c-.44,5.71-2.04,11.52-4.81,17.43-2.77,5.91-6.69,11.36-11.77,16.35s-11.35,9-18.82,12.03c-7.47,3.03-16.15,4.55-26.03,4.55-12.39,0-23.5-2.66-33.32-7.98-9.82-5.32-17.58-13.14-23.27-23.46-5.69-10.33-8.54-22.96-8.54-37.9s2.9-27.69,8.7-38c5.8-10.3,13.62-18.1,23.46-23.4,9.84-5.29,20.83-7.94,32.96-7.94,8.52,0,16.37,1.16,23.53,3.49,7.16,2.33,13.45,5.72,18.85,10.18,5.4,4.46,9.75,9.94,13.05,16.45s5.29,13.95,6,22.34Z"/>
    <path class="cls-1" d="M246.31,306.86h-39.55l44.56-134.99h50.09l44.56,134.99h-39.55l-29.53-97.81h-1.05l-29.53,97.81ZM238.93,253.6h74.35v27.42h-74.35v-27.42Z"/>
    <path class="cls-1" d="M358.88,171.87h45.61l31.37,76.46h1.58l31.37-76.46h45.61v134.99h-35.86v-78.04h-1.05l-30.06,76.98h-21.62l-30.06-77.51h-1.05v78.57h-35.86v-134.99Z"/>
    <path class="cls-1" d="M531.83,306.86v-134.99h97.28v29.53h-60.64v23.2h55.63v29.53h-55.63v23.2h60.37v29.53h-97.02Z"/>
    <path class="cls-1" d="M647.3,306.86v-134.99h58.27c10.02,0,18.78,1.82,26.3,5.47,7.51,3.65,13.36,8.9,17.53,15.75,4.17,6.85,6.26,15.07,6.26,24.65s-2.14,17.82-6.43,24.45c-4.28,6.64-10.28,11.64-17.99,15.03-7.71,3.38-16.71,5.08-26.99,5.08h-34.8v-28.47h27.42c4.31,0,7.99-.54,11.04-1.61,3.05-1.08,5.4-2.8,7.05-5.17,1.65-2.37,2.47-5.47,2.47-9.29s-.82-7.02-2.47-9.46c-1.65-2.44-4-4.24-7.05-5.4-3.05-1.16-6.73-1.75-11.04-1.75h-12.92v105.72h-36.65ZM726.4,244.9l33.75,61.96h-39.81l-32.96-61.96h39.02Z"/>
    <path class="cls-1" d="M901.98,239.36c0,15.03-2.92,27.69-8.77,38-5.84,10.3-13.73,18.1-23.66,23.4-9.93,5.3-21,7.94-33.22,7.94s-23.41-2.67-33.32-8.01c-9.91-5.34-17.77-13.16-23.6-23.46-5.82-10.3-8.73-22.93-8.73-37.87s2.91-27.69,8.73-38c5.82-10.3,13.69-18.1,23.6-23.4,9.91-5.29,21.01-7.94,33.32-7.94s23.29,2.65,33.22,7.94c9.93,5.3,17.82,13.09,23.66,23.4,5.84,10.3,8.77,22.97,8.77,38ZM864.28,239.36c0-8.08-1.07-14.91-3.2-20.47-2.13-5.56-5.27-9.78-9.42-12.65-4.15-2.88-9.26-4.32-15.32-4.32s-11.17,1.44-15.32,4.32-7.29,7.1-9.43,12.65c-2.13,5.56-3.2,12.38-3.2,20.47s1.06,14.91,3.2,20.46c2.13,5.56,5.27,9.78,9.43,12.66s9.26,4.32,15.32,4.32,11.17-1.44,15.32-4.32c4.15-2.88,7.29-7.1,9.42-12.66,2.13-5.56,3.2-12.38,3.2-20.46Z"/>
    <path class="cls-1" d="M1035.65,171.87v134.99h-30.58l-48.77-70.92h-.79v70.92h-36.65v-134.99h31.11l47.98,70.66h1.05v-70.66h36.65Z"/>
    <path class="cls-1" d="M474.09,529.58v-134.99h45.61c10.55,0,19.2,1.79,25.97,5.37,6.77,3.58,11.78,8.49,15.03,14.73,3.25,6.24,4.88,13.34,4.88,21.29s-1.63,15.01-4.88,21.16c-3.25,6.15-8.24,10.97-14.96,14.47-6.72,3.49-15.31,5.24-25.77,5.24h-36.91v-14.76h36.38c7.21,0,13.02-1.05,17.43-3.16s7.62-5.11,9.62-9c2-3.89,3-8.54,3-13.94s-1.01-10.13-3.03-14.17c-2.02-4.04-5.25-7.17-9.69-9.39-4.44-2.22-10.3-3.33-17.6-3.33h-28.74v120.48h-16.35ZM537.63,468.94l33.22,60.64h-18.98l-32.69-60.64h18.46Z"/>
    <path class="cls-1" d="M592.73,529.58v-134.99h81.47v14.5h-65.12v45.61h60.9v14.5h-60.9v45.87h66.17v14.5h-82.52Z"/>
    <path class="cls-1" d="M703.72,529.58v-134.99h81.47v14.5h-65.12v45.61h60.9v14.5h-60.9v45.87h66.17v14.5h-82.52Z"/>
    <path class="cls-1" d="M923.33,436.78h-16.35c-.97-4.7-2.65-8.83-5.04-12.39-2.4-3.56-5.3-6.56-8.7-9-3.41-2.44-7.17-4.27-11.3-5.5-4.13-1.23-8.44-1.84-12.92-1.84-8.17,0-15.57,2.07-22.18,6.2-6.61,4.13-11.86,10.22-15.75,18.26s-5.83,17.91-5.83,29.59,1.94,21.55,5.83,29.59,9.14,14.13,15.75,18.26c6.61,4.13,14.01,6.2,22.18,6.2,4.48,0,8.79-.62,12.92-1.85,4.13-1.23,7.9-3.07,11.3-5.5,3.4-2.44,6.3-5.45,8.7-9.03,2.39-3.58,4.08-7.7,5.04-12.36h16.35c-1.23,6.9-3.47,13.07-6.72,18.52-3.25,5.45-7.29,10.07-12.13,13.87-4.83,3.8-10.25,6.69-16.25,8.67-6,1.98-12.4,2.97-19.21,2.97-11.51,0-21.75-2.81-30.71-8.44-8.96-5.62-16.02-13.62-21.16-23.99-5.14-10.37-7.71-22.67-7.71-36.91s2.57-26.54,7.71-36.91,12.19-18.37,21.16-23.99c8.96-5.62,19.2-8.44,30.71-8.44,6.81,0,13.22.99,19.21,2.97,6,1.98,11.41,4.87,16.25,8.67,4.83,3.8,8.88,8.42,12.13,13.84,3.25,5.43,5.49,11.61,6.72,18.55Z"/>
    <path class="cls-1" d="M949.7,529.58v-134.99h81.47v14.5h-65.12v45.61h60.9v14.5h-60.9v45.87h66.17v14.5h-82.52Z"/>
  </g>
  <rect class="cls-1" x="1080.66" y="100.43" width="55.62" height="500.59"/>
</svg>